# xmcd
#
# Track frame offsets:
# 150
# 11669
# 23245
# 34552
# 47498
# 56403
# 67759
# 77537
# 88358
# 96424
# 106774
# 117109
# 126551
# 135512
# 144090
# 153713
# 163079
# 173499
# 184353
# 195401
# 206002
# 217828
# 226715
# 236625
# 245727
#
# Disc length: 3391 seconds
#
#
# Revision: 0
# Processed by: cddbd v1.5.2PL0 Copyright (c) Steve Scherf et al.
# Submitted via: FreeRIP 2.52 
#
DISCID=4a0d3d19
DTITLE=Various Artist - It's only Rock'n'Roll - CD1
DYEAR=2008
DGENRE=Rock and Roll
TTITLE0=Rock'n'Roll music - Chuck Berry
TTITLE1=Jailhouse Rock - Elvis Presley
TTITLE2=Peggy Sue - Buddy Holly
TTITLE3=Whole lotta shakin' going on - Jerry Lee Lewis
TTITLE4=Wake up little Susie - The Everly Brothers
TTITLE5=At the hop - Danny and the Juniors
TTITLE6=Party doll - Buddy Knox and the Rhythm Orchids
TTITLE7=Diana - Paul Anka
TTITLE8=(Let me be your) Teddy Bear - Elvis Presley
TTITLE9=Keep a knockin' - Little Richard
TTITLE10=Rocking pneumonia and the boogie woogie flu - Huey Smith and the Clowns
TTITLE11=Baby, Baby - Frankie Lymon and the Teenagers
TTITLE12=Sittin' in the balcony - Eddie Cochran
TTITLE13=Words of love - Buddy Holly
TTITLE14=Lotta lovin' - Buddy Holly
TTITLE15=Be-Bop Baby - Ricky Nelson
TTITLE16=Blue Monday - Fats Domino
TTITLE17=Butterfly - Charly Gracie
TTITLE18=Ma (he's making eyes at me) - Johnny Otis Show
TTITLE19=Raunchy - Bill Justis
TTITLE20=Goin' Steady - Tommy Sands
TTITLE21=Dynamite - Brenda Lee
TTITLE22=Goody, Goody - Frankie Lymon and the Teenagers
TTITLE23=I'm walkin' - Fats Domino
TTITLE24=Rock with the caveman - Tommy Steele
EXTD=edited by Chris
EXTT0=
EXTT1=
EXTT2=
EXTT3=
EXTT4=
EXTT5=
EXTT6=
EXTT7=
EXTT8=
EXTT9=
EXTT10=
EXTT11=
EXTT12=
EXTT13=
EXTT14=
EXTT15=
EXTT16=
EXTT17=
EXTT18=
EXTT19=
EXTT20=
EXTT21=
EXTT22=
EXTT23=
EXTT24=
PLAYORDER=
